<svg xmlns="http://www.w3.org/2000/svg" version="1.1" xmlns:xlink="http://www.w3.org/1999/xlink" width="512" height="512" x="0" y="0" viewBox="0 0 500 500" style="enable-background:new 0 0 512 512" xml:space="preserve" class=""><g><linearGradient id="a" x1="250" x2="250" y1="18.465" y2="481.535" gradientUnits="userSpaceOnUse"><stop offset="0" stop-color="#41ade2"></stop><stop offset=".069" stop-color="#3d99c8"></stop><stop offset=".216" stop-color="#347ba6"></stop><stop offset=".366" stop-color="#24668f"></stop><stop offset=".518" stop-color="#1d577e"></stop><stop offset=".673" stop-color="#0d4c72"></stop><stop offset=".831" stop-color="#0c466c"></stop><stop offset="1" stop-color="#08446b"></stop></linearGradient><path fill="url(#a)" d="M224.09 453.86c0 15.26 12.41 27.67 27.67 27.67h220.56c15.26 0 27.67-12.41 27.67-27.67v-54.92h-275.9zm41.29-22.26h28.4c4.1 0 7.42 3.32 7.42 7.42s-3.32 7.42-7.42 7.42h-28.4c-4.1 0-7.42-3.32-7.42-7.42.01-4.1 3.33-7.42 7.42-7.42zm206.95-225.97H251.76c-15.26 0-27.67 12.41-27.67 27.67v53.5H500v-53.5c0-15.26-12.41-27.67-27.67-27.67zm-178.55 49.32h-28.4c-4.1 0-7.42-3.32-7.42-7.42s3.32-7.42 7.42-7.42h28.4c4.1 0 7.42 3.32 7.42 7.42s-3.32 7.42-7.42 7.42zm-69.69 129.16H500v-82.48H224.09zm41.29-48.25h28.4c4.1 0 7.42 3.32 7.42 7.42s-3.32 7.42-7.42 7.42h-28.4c-4.1 0-7.42-3.32-7.42-7.42.01-4.1 3.33-7.42 7.42-7.42zm-13.62-145.07c-23.44 0-42.5 19.07-42.5 42.5v104.06h-71.2V258.4l28.47 28.47c2.12 2.12 5.31 2.76 8.08 1.61s4.58-3.85 4.58-6.85v-45.04c0-1.97-.78-3.85-2.17-5.24l-57.05-57.05c-2.9-2.9-7.59-2.9-10.49 0l-57.05 57.05a7.419 7.419 0 0 0-2.17 5.24v45.04c0 3 1.81 5.7 4.58 6.85s5.96.51 8.08-1.61l28.47-28.47v76.9C32.03 324.72 2.8 274.48.19 227.6-2.31 182.68 19.44 124.63 89 108.92c3.11-.7 5.42-3.31 5.74-6.48 5.91-57.98 51.52-83.95 94.09-83.97h.05c42.56 0 88.16 25.93 94.12 83.88a7.4 7.4 0 0 0 3.04 5.25 7.41 7.41 0 0 0 5.95 1.22c8.22-1.83 16.7-2.75 25.2-2.75 66.33 0 99.93 42.28 110.29 84.72zm-87.41 72.94-28.47-28.46a7.43 7.43 0 0 0-8.08-1.61 7.42 7.42 0 0 0-4.58 6.85V399.9h-17.01V240.51c0-3-1.81-5.7-4.58-6.85s-5.96-.51-8.08 1.61l-28.47 28.46v-24.06l49.63-49.63 49.63 49.63v24.06z" opacity="1" data-original="url(#a)"></path></g></svg>