<svg xmlns="http://www.w3.org/2000/svg" version="1.1" xmlns:xlink="http://www.w3.org/1999/xlink" width="512" height="512" x="0" y="0" viewBox="0 0 68 68" style="enable-background:new 0 0 512 512" xml:space="preserve" class=""><g><path fill="#ffab02" d="M1.841 49.1V5.55a3.358 3.358 0 0 1 3.358-3.358h20.468c.94 0 1.836.394 2.472 1.085l5.383 5.856h22.614a3.358 3.358 0 0 1 3.358 3.358V49.1a3.358 3.358 0 0 1-3.358 3.359H5.199a3.358 3.358 0 0 1-3.358-3.359z" opacity="1" data-original="#ffab02" class=""></path><path fill="#e9edf4" d="M55.238 15.731v19.993H12.7V15.73a3.015 3.015 0 0 1 3.015-3.015h36.508a3.015 3.015 0 0 1 3.015 3.015z" opacity="1" data-original="#e9edf4"></path><path fill="#ffc90d" d="m66.119 21.397-5.583 27.821a4.03 4.03 0 0 1-3.952 3.237H5.118a2.687 2.687 0 0 1-2.634-3.215l5.747-28.636a2.015 2.015 0 0 1 1.976-1.619h53.936a2.015 2.015 0 0 1 1.976 2.412z" opacity="1" data-original="#ffc90d"></path><path fill="#f14f4a" d="m32.729 56.66-6.472 8.511a1.582 1.582 0 0 1-2.527.01l-6.46-8.522c-.794-1.046-.048-2.548 1.265-2.548h2.583V40.557a3.87 3.87 0 0 1 3.87-3.87h.01a3.87 3.87 0 0 1 3.87 3.87l.001 13.554h2.59c1.312 0 2.052 1.501 1.27 2.548z" opacity="1" data-original="#f14f4a"></path><path fill="#8dd1fe" d="m36.097 45.834 6.471-8.512a1.582 1.582 0 0 1 2.528-.01l6.46 8.522c.793 1.046.047 2.548-1.266 2.548h-2.583v13.555a3.87 3.87 0 0 1-3.87 3.87h-.01a3.87 3.87 0 0 1-3.87-3.87V48.382h-2.591c-1.311 0-2.051-1.501-1.269-2.548z" opacity="1" data-original="#8dd1fe"></path></g></svg>